solid OpenSCAD_Model
  facet normal 0.992709 0.120537 0
    outer loop
      vertex 8 0 5
      vertex 7.76753 1.91453 0
      vertex 7.76753 1.91453 5
    endloop
  endfacet
  facet normal 0.992709 0.120537 0
    outer loop
      vertex 7.76753 1.91453 0
      vertex 8 0 5
      vertex 8 0 0
    endloop
  endfacet
  facet normal -0.992709 0.120537 0
    outer loop
      vertex -8 0 0
      vertex -7.76753 1.91453 5
      vertex -7.76753 1.91453 0
    endloop
  endfacet
  facet normal -0.992709 0.120537 0
    outer loop
      vertex -7.76753 1.91453 5
      vertex -8 0 0
      vertex -8 0 5
    endloop
  endfacet
  facet normal 0 1 -0
    outer loop
      vertex 0.964293 7.94167 0
      vertex -0.964293 7.94167 5
      vertex 0.964293 7.94167 5
    endloop
  endfacet
  facet normal 0 1 0
    outer loop
      vertex -0.964293 7.94167 5
      vertex 0.964293 7.94167 0
      vertex -0.964293 7.94167 0
    endloop
  endfacet
  facet normal 0 -1 0
    outer loop
      vertex -0.964293 -7.94167 0
      vertex 0.964293 -7.94167 5
      vertex -0.964293 -7.94167 5
    endloop
  endfacet
  facet normal 0 -1 -0
    outer loop
      vertex 0.964293 -7.94167 5
      vertex -0.964293 -7.94167 0
      vertex 0.964293 -7.94167 0
    endloop
  endfacet
  facet normal 0.663123 0.748511 0
    outer loop
      vertex 5.98809 5.30498 8
      vertex 5 6.18035 5
      vertex 5 6.18035 8
    endloop
  endfacet
  facet normal 0.663123 0.748511 -0
    outer loop
      vertex 5.98809 5.30498 0
      vertex 5 6.18035 5
      vertex 5.98809 5.30498 8
    endloop
  endfacet
  facet normal 0.663123 0.748511 -2.85843e-08
    outer loop
      vertex 4.54452 6.58387 0
      vertex 5 6.18035 5
      vertex 5.98809 5.30498 0
    endloop
  endfacet
  facet normal 0.663122 0.748511 0
    outer loop
      vertex 5 6.18035 5
      vertex 4.54452 6.58387 0
      vertex 4.54452 6.58387 5
    endloop
  endfacet
  facet normal -0.663122 0.748511 0
    outer loop
      vertex -4.54452 6.58387 5
      vertex -4.54452 6.58387 0
      vertex -5 6.18035 5
    endloop
  endfacet
  facet normal -0.663123 0.748511 0
    outer loop
      vertex -5 6.18035 5
      vertex -5.98809 5.30498 8
      vertex -5 6.18035 8
    endloop
  endfacet
  facet normal -0.663123 0.748511 -2.85843e-08
    outer loop
      vertex -5.98809 5.30498 0
      vertex -5 6.18035 5
      vertex -4.54452 6.58387 0
    endloop
  endfacet
  facet normal -0.663123 0.748511 0
    outer loop
      vertex -5 6.18035 5
      vertex -5.98809 5.30498 0
      vertex -5.98809 5.30498 8
    endloop
  endfacet
  facet normal -0 0 1
    outer loop
      vertex -5 6.18035 8
      vertex -5.98809 5.30498 8
      vertex -4.54452 6.58387 8
    endloop
  endfacet
  facet normal 0 0 1
    outer loop
      vertex 1.76341e-15 7.94167 8
      vertex -0.964293 7.94167 8
      vertex 1.66533e-15 7.5 8
    endloop
  endfacet
  facet normal 0 0 1
    outer loop
      vertex 7.76753 1.91453 8
      vertex 7.5 0 8
      vertex 8 0 8
    endloop
  endfacet
  facet normal 0 0 1
    outer loop
      vertex 4 4 8
      vertex 7.76753 1.91453 8
      vertex 7.08365 3.71778 8
    endloop
  endfacet
  facet normal 0 0 1
    outer loop
      vertex 7.76753 1.91453 8
      vertex 4 0 8
      vertex 7.5 0 8
    endloop
  endfacet
  facet normal 0 0 1
    outer loop
      vertex 7.5 0 8
      vertex 4 0 8
      vertex 7.24444 -1.94114 8
    endloop
  endfacet
  facet normal -0 0 1
    outer loop
      vertex 4 4 8
      vertex 7.08365 3.71778 8
      vertex 5.98809 5.30498 8
    endloop
  endfacet
  facet normal 0 0 1
    outer loop
      vertex 7.24444 -1.94114 8
      vertex 4 0 8
      vertex 6.49519 -3.75 8
    endloop
  endfacet
  facet normal -0 0 1
    outer loop
      vertex 5 5.53603 8
      vertex 5.98809 5.30498 8
      vertex 5 6.18035 8
    endloop
  endfacet
  facet normal -0 0 1
    outer loop
      vertex 5.53603 -5 8
      vertex 5.98809 -5.30498 8
      vertex 6.1986 -5 8
    endloop
  endfacet
  facet normal 0 0 1
    outer loop
      vertex 4 4 8
      vertex 5.98809 5.30498 8
      vertex 5 5.53603 8
    endloop
  endfacet
  facet normal 0 0 1
    outer loop
      vertex 6.49519 -3.75 8
      vertex 4 0 8
      vertex 5.53603 -5 8
    endloop
  endfacet
  facet normal 0 0 1
    outer loop
      vertex 5 -5.53603 8
      vertex 5.98809 -5.30498 8
      vertex 5.53603 -5 8
    endloop
  endfacet
  facet normal 0 0 1
    outer loop
      vertex 5.98809 -5.30498 8
      vertex 5 -5.53603 8
      vertex 5 -6.18035 8
    endloop
  endfacet
  facet normal 0 0 1
    outer loop
      vertex 7.76753 1.91453 8
      vertex 4 4 8
      vertex 4 0 8
    endloop
  endfacet
  facet normal 0 0 1
    outer loop
      vertex 3.75 6.49519 8
      vertex 4 4 8
      vertex 5 5.53603 8
    endloop
  endfacet
  facet normal 0 0 1
    outer loop
      vertex 1.94114 7.24444 8
      vertex 4 4 8
      vertex 3.75 6.49519 8
    endloop
  endfacet
  facet normal 0 0 1
    outer loop
      vertex 1.66533e-15 7.5 8
      vertex 4 4 8
      vertex 1.94114 7.24444 8
    endloop
  endfacet
  facet normal 0 0 1
    outer loop
      vertex -2.83684 7.48013 8
      vertex 1.66533e-15 7.5 8
      vertex -0.964293 7.94167 8
    endloop
  endfacet
  facet normal 0 0 1
    outer loop
      vertex 1.66533e-15 7.5 8
      vertex -2.83684 7.48013 8
      vertex -4 4 8
    endloop
  endfacet
  facet normal 0 0 1
    outer loop
      vertex 1.66533e-15 7.5 8
      vertex -4 4 8
      vertex 4 4 8
    endloop
  endfacet
  facet normal -0 0 1
    outer loop
      vertex -5.98809 5.30498 8
      vertex -4 4 8
      vertex -4.54452 6.58387 8
    endloop
  endfacet
  facet normal -0 0 1
    outer loop
      vertex -4.54452 6.58387 8
      vertex -4 4 8
      vertex -2.83684 7.48013 8
    endloop
  endfacet
  facet normal 0 0 1
    outer loop
      vertex 5.53603 -5 8
      vertex 4 0 8
      vertex 5 -5.53603 8
    endloop
  endfacet
  facet normal 0 0 1
    outer loop
      vertex 4 0 8
      vertex 3.75 -6.49519 8
      vertex 5 -5.53603 8
    endloop
  endfacet
  facet normal 0 0 1
    outer loop
      vertex 4 0 8
      vertex 1.94114 -7.24444 8
      vertex 3.75 -6.49519 8
    endloop
  endfacet
  facet normal 0 0 1
    outer loop
      vertex 4 0 8
      vertex 0 -7.5 8
      vertex 1.94114 -7.24444 8
    endloop
  endfacet
  facet normal 0 0 1
    outer loop
      vertex 4 0 8
      vertex -1.66533e-15 -7.5 8
      vertex 0 -7.5 8
    endloop
  endfacet
  facet normal 0 0 1
    outer loop
      vertex -1.66533e-15 -7.5 8
      vertex -0.964293 -7.94167 8
      vertex -1.76341e-15 -7.94167 8
    endloop
  endfacet
  facet normal -0 0 1
    outer loop
      vertex -4 0 8
      vertex -1.66533e-15 -7.5 8
      vertex 4 0 8
    endloop
  endfacet
  facet normal -0 -0 1
    outer loop
      vertex -2.83684 -7.48013 8
      vertex -1.66533e-15 -7.5 8
      vertex -4 0 8
    endloop
  endfacet
  facet normal 0 0 1
    outer loop
      vertex -1.66533e-15 -7.5 8
      vertex -2.83684 -7.48013 8
      vertex -0.964293 -7.94167 8
    endloop
  endfacet
  facet normal -0 0 1
    outer loop
      vertex -5.53603 -5 8
      vertex -2.83684 -7.48013 8
      vertex -4 0 8
    endloop
  endfacet
  facet normal 0 0 1
    outer loop
      vertex -7.08365 3.71778 8
      vertex -4 4 8
      vertex -5.98809 5.30498 8
    endloop
  endfacet
  facet normal 0 0 1
    outer loop
      vertex -2.83684 -7.48013 8
      vertex -5.53603 -5 8
      vertex -4.54452 -6.58387 8
    endloop
  endfacet
  facet normal 0 0 1
    outer loop
      vertex -7.76753 1.91453 8
      vertex -4 4 8
      vertex -7.08365 3.71778 8
    endloop
  endfacet
  facet normal 0 -0 1
    outer loop
      vertex -7.24444 -1.94114 8
      vertex -4 0 8
      vertex -7.5 0 8
    endloop
  endfacet
  facet normal 0 0 1
    outer loop
      vertex -4 4 8
      vertex -7.76753 1.91453 8
      vertex -4 0 8
    endloop
  endfacet
  facet normal 0 -0 1
    outer loop
      vertex -6.49519 -3.75 8
      vertex -4 0 8
      vertex -7.24444 -1.94114 8
    endloop
  endfacet
  facet normal 0 0 1
    outer loop
      vertex -4 0 8
      vertex -6.49519 -3.75 8
      vertex -5.53603 -5 8
    endloop
  endfacet
  facet normal 0 0 1
    outer loop
      vertex -4 0 8
      vertex -7.76753 1.91453 8
      vertex -7.5 0 8
    endloop
  endfacet
  facet normal 0 0 1
    outer loop
      vertex -7.5 0 8
      vertex -7.76753 1.91453 8
      vertex -8 0 8
    endloop
  endfacet
  facet normal 0 0 1
    outer loop
      vertex -5.53603 -5 8
      vertex -5.98809 -5.30498 8
      vertex -4.54452 -6.58387 8
    endloop
  endfacet
  facet normal 0 -0 1
    outer loop
      vertex -5.98809 -5.30498 8
      vertex -5.53603 -5 8
      vertex -6.1986 -5 8
    endloop
  endfacet
  facet normal -0.464723 0.885456 0
    outer loop
      vertex -2.83684 7.48013 0
      vertex -4.54452 6.58387 5
      vertex -2.83684 7.48013 5
    endloop
  endfacet
  facet normal -0.464723 0.885456 0
    outer loop
      vertex -4.54452 6.58387 5
      vertex -2.83684 7.48013 0
      vertex -4.54452 6.58387 0
    endloop
  endfacet
  facet normal 0 0 -1
    outer loop
      vertex 6.96165 -0.731699 0
      vertex 8 0 0
      vertex 7.76753 -1.91453 0
    endloop
  endfacet
  facet normal 0 0 -1
    outer loop
      vertex 6.57785 -2.39414 0
      vertex 7.76753 -1.91453 0
      vertex 7.08365 -3.71778 0
    endloop
  endfacet
  facet normal 0 0 -1
    outer loop
      vertex 8 0 0
      vertex 6.96165 -0.731699 0
      vertex 6.98295 -0.488295 0
    endloop
  endfacet
  facet normal 0 0 -1
    outer loop
      vertex 6.98295 0.488295 0
      vertex 8 0 0
      vertex 6.99574 0.244296 0
    endloop
  endfacet
  facet normal 0 0 -1
    outer loop
      vertex 6.99574 0.244296 0
      vertex 8 0 0
      vertex 7 0 0
    endloop
  endfacet
  facet normal -0 0 -1
    outer loop
      vertex 8 0 0
      vertex 6.99574 -0.244296 0
      vertex 7 0 0
    endloop
  endfacet
  facet normal 0 0 -1
    outer loop
      vertex 8 0 0
      vertex 6.98295 -0.488295 0
      vertex 6.99574 -0.244296 0
    endloop
  endfacet
  facet normal 0 0 -1
    outer loop
      vertex 7.76753 -1.91453 0
      vertex 6.93188 -0.974212 0
      vertex 6.96165 -0.731699 0
    endloop
  endfacet
  facet normal 0 0 -1
    outer loop
      vertex 7.76753 -1.91453 0
      vertex 6.89365 -1.21554 0
      vertex 6.93188 -0.974212 0
    endloop
  endfacet
  facet normal 0 0 -1
    outer loop
      vertex 7.76753 -1.91453 0
      vertex 6.84703 -1.45538 0
      vertex 6.89365 -1.21554 0
    endloop
  endfacet
  facet normal 0 0 -1
    outer loop
      vertex 7.76753 -1.91453 0
      vertex 6.79207 -1.69345 0
      vertex 6.84703 -1.45538 0
    endloop
  endfacet
  facet normal -0 0 -1
    outer loop
      vertex 7.76753 -1.91453 0
      vertex 6.72883 -1.92946 0
      vertex 6.79207 -1.69345 0
    endloop
  endfacet
  facet normal 0 0 -1
    outer loop
      vertex 7.76753 -1.91453 0
      vertex 6.6574 -2.16312 0
      vertex 6.72883 -1.92946 0
    endloop
  endfacet
  facet normal 0 0 -1
    outer loop
      vertex 7.76753 -1.91453 0
      vertex 6.57785 -2.39414 0
      vertex 6.6574 -2.16312 0
    endloop
  endfacet
  facet normal 0 0 -1
    outer loop
      vertex 7.08365 -3.71778 0
      vertex 6.49029 -2.62225 0
      vertex 6.57785 -2.39414 0
    endloop
  endfacet
  facet normal 0 0 -1
    outer loop
      vertex 7.08365 -3.71778 0
      vertex 6.39482 -2.84716 0
      vertex 6.49029 -2.62225 0
    endloop
  endfacet
  facet normal 0 0 -1
    outer loop
      vertex 7.08365 -3.71778 0
      vertex 6.29156 -3.0686 0
      vertex 6.39482 -2.84716 0
    endloop
  endfacet
  facet normal 0 0 -1
    outer loop
      vertex 7.08365 -3.71778 0
      vertex 6.18063 -3.2863 0
      vertex 6.29156 -3.0686 0
    endloop
  endfacet
  facet normal 0 0 -1
    outer loop
      vertex 7.08365 -3.71778 0
      vertex 6.06218 -3.5 0
      vertex 6.18063 -3.2863 0
    endloop
  endfacet
  facet normal 0 0 -1
    outer loop
      vertex 5.80326 -3.91435 0
      vertex 7.08365 -3.71778 0
      vertex 5.98809 -5.30498 0
    endloop
  endfacet
  facet normal 0 0 -1
    outer loop
      vertex 7.08365 -3.71778 0
      vertex 5.93634 -3.70943 0
      vertex 6.06218 -3.5 0
    endloop
  endfacet
  facet normal -0 0 -1
    outer loop
      vertex 7.08365 -3.71778 0
      vertex 5.80326 -3.91435 0
      vertex 5.93634 -3.70943 0
    endloop
  endfacet
  facet normal 0 0 -1
    outer loop
      vertex 5.98809 -5.30498 0
      vertex 5.66312 -4.1145 0
      vertex 5.80326 -3.91435 0
    endloop
  endfacet
  facet normal 0 0 -1
    outer loop
      vertex 5.98809 -5.30498 0
      vertex 5.51608 -4.30963 0
      vertex 5.66312 -4.1145 0
    endloop
  endfacet
  facet normal 0 0 -1
    outer loop
      vertex 5.98809 -5.30498 0
      vertex 5.36231 -4.49951 0
      vertex 5.51608 -4.30963 0
    endloop
  endfacet
  facet normal 0 0 -1
    outer loop
      vertex 5.98809 -5.30498 0
      vertex 5.20201 -4.68391 0
      vertex 5.36231 -4.49951 0
    endloop
  endfacet
  facet normal 0 0 -1
    outer loop
      vertex 5.98809 -5.30498 0
      vertex 5.03538 -4.86261 0
      vertex 5.20201 -4.68391 0
    endloop
  endfacet
  facet normal 0 0 -1
    outer loop
      vertex 5.98809 -5.30498 0
      vertex 4.86261 -5.03538 0
      vertex 5.03538 -4.86261 0
    endloop
  endfacet
  facet normal 0 0 -1
    outer loop
      vertex 5.98809 -5.30498 0
      vertex 4.68391 -5.20201 0
      vertex 4.86261 -5.03538 0
    endloop
  endfacet
  facet normal 0 0 -1
    outer loop
      vertex 4.54452 -6.58387 0
      vertex 4.68391 -5.20201 0
      vertex 5.98809 -5.30498 0
    endloop
  endfacet
  facet normal 0 0 -1
    outer loop
      vertex 4.54452 -6.58387 0
      vertex 4.49951 -5.36231 0
      vertex 4.68391 -5.20201 0
    endloop
  endfacet
  facet normal 0 0 -1
    outer loop
      vertex 4.54452 -6.58387 0
      vertex 4.30963 -5.51608 0
      vertex 4.49951 -5.36231 0
    endloop
  endfacet
  facet normal 0 0 -1
    outer loop
      vertex 4.54452 -6.58387 0
      vertex 4.1145 -5.66312 0
      vertex 4.30963 -5.51608 0
    endloop
  endfacet
  facet normal 0 0 -1
    outer loop
      vertex 4.54452 -6.58387 0
      vertex 3.91435 -5.80326 0
      vertex 4.1145 -5.66312 0
    endloop
  endfacet
  facet normal 0 0 -1
    outer loop
      vertex 4.54452 -6.58387 0
      vertex 3.70943 -5.93634 0
      vertex 3.91435 -5.80326 0
    endloop
  endfacet
  facet normal 0 0 -1
    outer loop
      vertex 4.54452 -6.58387 0
      vertex 3.5 -6.06218 0
      vertex 3.70943 -5.93634 0
    endloop
  endfacet
  facet normal 0 0 -1
    outer loop
      vertex 4.54452 -6.58387 0
      vertex 3.2863 -6.18063 0
      vertex 3.5 -6.06218 0
    endloop
  endfacet
  facet normal 0 0 -1
    outer loop
      vertex 2.83684 -7.48013 0
      vertex 3.2863 -6.18063 0
      vertex 4.54452 -6.58387 0
    endloop
  endfacet
  facet normal 0 0 -1
    outer loop
      vertex 3.2863 -6.18063 0
      vertex 2.83684 -7.48013 0
      vertex 3.0686 -6.29156 0
    endloop
  endfacet
  facet normal 0 0 -1
    outer loop
      vertex 3.0686 -6.29156 0
      vertex 2.83684 -7.48013 0
      vertex 2.84716 -6.39482 0
    endloop
  endfacet
  facet normal 0 0 -1
    outer loop
      vertex 2.83684 -7.48013 0
      vertex 2.62225 -6.49029 0
      vertex 2.84716 -6.39482 0
    endloop
  endfacet
  facet normal 0 0 -1
    outer loop
      vertex 2.83684 -7.48013 0
      vertex 2.39414 -6.57785 0
      vertex 2.62225 -6.49029 0
    endloop
  endfacet
  facet normal 0 0 -1
    outer loop
      vertex 2.83684 -7.48013 0
      vertex 2.16312 -6.6574 0
      vertex 2.39414 -6.57785 0
    endloop
  endfacet
  facet normal 0 0 -1
    outer loop
      vertex 2.83684 -7.48013 0
      vertex 1.92946 -6.72883 0
      vertex 2.16312 -6.6574 0
    endloop
  endfacet
  facet normal 0 0 -1
    outer loop
      vertex 2.83684 -7.48013 0
      vertex 1.69345 -6.79207 0
      vertex 1.92946 -6.72883 0
    endloop
  endfacet
  facet normal 0 0 -1
    outer loop
      vertex 0.964293 -7.94167 0
      vertex 1.69345 -6.79207 0
      vertex 2.83684 -7.48013 0
    endloop
  endfacet
  facet normal 0 0 -1
    outer loop
      vertex 1.69345 -6.79207 0
      vertex 0.964293 -7.94167 0
      vertex 1.45538 -6.84703 0
    endloop
  endfacet
  facet normal 0 0 -1
    outer loop
      vertex 1.45538 -6.84703 0
      vertex 0.964293 -7.94167 0
      vertex 1.21554 -6.89365 0
    endloop
  endfacet
  facet normal 0 0 -1
    outer loop
      vertex 1.21554 -6.89365 0
      vertex 0.964293 -7.94167 0
      vertex 0.974212 -6.93188 0
    endloop
  endfacet
  facet normal 0 0 -1
    outer loop
      vertex 0.964293 -7.94167 0
      vertex 0.731699 -6.96165 0
      vertex 0.974212 -6.93188 0
    endloop
  endfacet
  facet normal 0 0 -1
    outer loop
      vertex 0.964293 -7.94167 0
      vertex 0.488295 -6.98295 0
      vertex 0.731699 -6.96165 0
    endloop
  endfacet
  facet normal 0 0 -1
    outer loop
      vertex 0.964293 -7.94167 0
      vertex 0.244296 -6.99574 0
      vertex 0.488295 -6.98295 0
    endloop
  endfacet
  facet normal 0 0 -1
    outer loop
      vertex 0.964293 -7.94167 0
      vertex 0 -7 0
      vertex 0.244296 -6.99574 0
    endloop
  endfacet
  facet normal 0 0 -1
    outer loop
      vertex -0.964293 -7.94167 0
      vertex 0 -7 0
      vertex 0.964293 -7.94167 0
    endloop
  endfacet
  facet normal -0 0 -1
    outer loop
      vertex 0 -7 0
      vertex -0.964293 -7.94167 0
      vertex -0.244296 -6.99574 0
    endloop
  endfacet
  facet normal -0 0 -1
    outer loop
      vertex -0.244296 -6.99574 0
      vertex -0.964293 -7.94167 0
      vertex -0.488295 -6.98295 0
    endloop
  endfacet
  facet normal -0 0 -1
    outer loop
      vertex -0.488295 -6.98295 0
      vertex -0.964293 -7.94167 0
      vertex -0.731699 -6.96165 0
    endloop
  endfacet
  facet normal 0 0 -1
    outer loop
      vertex -0.964293 -7.94167 0
      vertex -0.974212 -6.93188 0
      vertex -0.731699 -6.96165 0
    endloop
  endfacet
  facet normal 0 0 -1
    outer loop
      vertex -0.964293 -7.94167 0
      vertex -1.21554 -6.89365 0
      vertex -0.974212 -6.93188 0
    endloop
  endfacet
  facet normal 0 0 -1
    outer loop
      vertex -0.964293 -7.94167 0
      vertex -1.45538 -6.84703 0
      vertex -1.21554 -6.89365 0
    endloop
  endfacet
  facet normal 0 0 -1
    outer loop
      vertex -0.964293 -7.94167 0
      vertex -1.69345 -6.79207 0
      vertex -1.45538 -6.84703 0
    endloop
  endfacet
  facet normal 0 0 -1
    outer loop
      vertex -2.83684 -7.48013 0
      vertex -1.69345 -6.79207 0
      vertex -0.964293 -7.94167 0
    endloop
  endfacet
  facet normal -0 0 -1
    outer loop
      vertex -1.69345 -6.79207 0
      vertex -2.83684 -7.48013 0
      vertex -1.92946 -6.72883 0
    endloop
  endfacet
  facet normal -0 0 -1
    outer loop
      vertex -1.92946 -6.72883 0
      vertex -2.83684 -7.48013 0
      vertex -2.16312 -6.6574 0
    endloop
  endfacet
  facet normal -0 0 -1
    outer loop
      vertex -2.16312 -6.6574 0
      vertex -2.83684 -7.48013 0
      vertex -2.39414 -6.57785 0
    endloop
  endfacet
  facet normal -0 0 -1
    outer loop
      vertex -2.39414 -6.57785 0
      vertex -2.83684 -7.48013 0
      vertex -2.62225 -6.49029 0
    endloop
  endfacet
  facet normal 0 0 -1
    outer loop
      vertex -2.83684 -7.48013 0
      vertex -2.84716 -6.39482 0
      vertex -2.62225 -6.49029 0
    endloop
  endfacet
  facet normal 0 0 -1
    outer loop
      vertex -2.83684 -7.48013 0
      vertex -3.0686 -6.29156 0
      vertex -2.84716 -6.39482 0
    endloop
  endfacet
  facet normal 0 0 -1
    outer loop
      vertex -2.83684 -7.48013 0
      vertex -3.2863 -6.18063 0
      vertex -3.0686 -6.29156 0
    endloop
  endfacet
  facet normal 0 0 -1
    outer loop
      vertex -4.54452 -6.58387 0
      vertex -3.2863 -6.18063 0
      vertex -2.83684 -7.48013 0
    endloop
  endfacet
  facet normal -0 0 -1
    outer loop
      vertex -3.2863 -6.18063 0
      vertex -4.54452 -6.58387 0
      vertex -3.5 -6.06218 0
    endloop
  endfacet
  facet normal -0 0 -1
    outer loop
      vertex -3.5 -6.06218 0
      vertex -4.54452 -6.58387 0
      vertex -3.70943 -5.93634 0
    endloop
  endfacet
  facet normal -0 0 -1
    outer loop
      vertex -3.70943 -5.93634 0
      vertex -4.54452 -6.58387 0
      vertex -3.91435 -5.80326 0
    endloop
  endfacet
  facet normal -0 0 -1
    outer loop
      vertex -3.91435 -5.80326 0
      vertex -4.54452 -6.58387 0
      vertex -4.1145 -5.66312 0
    endloop
  endfacet
  facet normal -0 0 -1
    outer loop
      vertex -4.1145 -5.66312 0
      vertex -4.54452 -6.58387 0
      vertex -4.30963 -5.51608 0
    endloop
  endfacet
  facet normal -0 0 -1
    outer loop
      vertex -4.30963 -5.51608 0
      vertex -4.54452 -6.58387 0
      vertex -4.49951 -5.36231 0
    endloop
  endfacet
  facet normal 0 0 -1
    outer loop
      vertex -4.54452 -6.58387 0
      vertex -4.68391 -5.20201 0
      vertex -4.49951 -5.36231 0
    endloop
  endfacet
  facet normal 0 0 -1
    outer loop
      vertex -5.98809 -5.30498 0
      vertex -4.68391 -5.20201 0
      vertex -4.54452 -6.58387 0
    endloop
  endfacet
  facet normal -0 0 -1
    outer loop
      vertex -4.68391 -5.20201 0
      vertex -5.98809 -5.30498 0
      vertex -4.86261 -5.03538 0
    endloop
  endfacet
  facet normal -0 0 -1
    outer loop
      vertex -4.86261 -5.03538 0
      vertex -5.98809 -5.30498 0
      vertex -5.03538 -4.86261 0
    endloop
  endfacet
  facet normal -0 0 -1
    outer loop
      vertex -5.03538 -4.86261 0
      vertex -5.98809 -5.30498 0
      vertex -5.20201 -4.68391 0
    endloop
  endfacet
  facet normal -0 0 -1
    outer loop
      vertex -5.20201 -4.68391 0
      vertex -5.98809 -5.30498 0
      vertex -5.36231 -4.49951 0
    endloop
  endfacet
  facet normal -0 0 -1
    outer loop
      vertex -5.36231 -4.49951 0
      vertex -5.98809 -5.30498 0
      vertex -5.51608 -4.30963 0
    endloop
  endfacet
  facet normal -0 0 -1
    outer loop
      vertex -5.51608 -4.30963 0
      vertex -5.98809 -5.30498 0
      vertex -5.66312 -4.1145 0
    endloop
  endfacet
  facet normal -0 0 -1
    outer loop
      vertex -5.66312 -4.1145 0
      vertex -5.98809 -5.30498 0
      vertex -5.80326 -3.91435 0
    endloop
  endfacet
  facet normal 0 0 -1
    outer loop
      vertex -7.08365 -3.71778 0
      vertex -5.80326 -3.91435 0
      vertex -5.98809 -5.30498 0
    endloop
  endfacet
  facet normal 0 0 -1
    outer loop
      vertex -5.80326 -3.91435 0
      vertex -7.08365 -3.71778 0
      vertex -5.93634 -3.70943 0
    endloop
  endfacet
  facet normal -0 0 -1
    outer loop
      vertex -5.93634 -3.70943 0
      vertex -7.08365 -3.71778 0
      vertex -6.06218 -3.5 0
    endloop
  endfacet
  facet normal -0 0 -1
    outer loop
      vertex -6.06218 -3.5 0
      vertex -7.08365 -3.71778 0
      vertex -6.18063 -3.2863 0
    endloop
  endfacet
  facet normal -0 0 -1
    outer loop
      vertex -6.18063 -3.2863 0
      vertex -7.08365 -3.71778 0
      vertex -6.29156 -3.0686 0
    endloop
  endfacet
  facet normal -0 0 -1
    outer loop
      vertex -6.29156 -3.0686 0
      vertex -7.08365 -3.71778 0
      vertex -6.39482 -2.84716 0
    endloop
  endfacet
  facet normal -0 0 -1
    outer loop
      vertex -6.39482 -2.84716 0
      vertex -7.08365 -3.71778 0
      vertex -6.49029 -2.62225 0
    endloop
  endfacet
  facet normal -0 0 -1
    outer loop
      vertex -6.49029 -2.62225 0
      vertex -7.08365 -3.71778 0
      vertex -6.57785 -2.39414 0
    endloop
  endfacet
  facet normal 0 0 -1
    outer loop
      vertex -7.76753 -1.91453 0
      vertex -6.57785 -2.39414 0
      vertex -7.08365 -3.71778 0
    endloop
  endfacet
  facet normal 0 0 -1
    outer loop
      vertex -6.57785 -2.39414 0
      vertex -7.76753 -1.91453 0
      vertex -6.6574 -2.16312 0
    endloop
  endfacet
  facet normal 0 0 -1
    outer loop
      vertex -6.6574 -2.16312 0
      vertex -7.76753 -1.91453 0
      vertex -6.72883 -1.92946 0
    endloop
  endfacet
  facet normal 0 0 -1
    outer loop
      vertex -6.96165 -0.731699 0
      vertex -8 0 0
      vertex -6.98295 -0.488295 0
    endloop
  endfacet
  facet normal 0 0 -1
    outer loop
      vertex -8 0 0
      vertex -6.96165 -0.731699 0
      vertex -7.76753 -1.91453 0
    endloop
  endfacet
  facet normal -0 0 -1
    outer loop
      vertex -6.93188 -0.974212 0
      vertex -7.76753 -1.91453 0
      vertex -6.96165 -0.731699 0
    endloop
  endfacet
  facet normal -0 0 -1
    outer loop
      vertex -6.89365 -1.21554 0
      vertex -7.76753 -1.91453 0
      vertex -6.93188 -0.974212 0
    endloop
  endfacet
  facet normal -0 0 -1
    outer loop
      vertex -6.84703 -1.45538 0
      vertex -7.76753 -1.91453 0
      vertex -6.89365 -1.21554 0
    endloop
  endfacet
  facet normal -0 0 -1
    outer loop
      vertex -6.79207 -1.69345 0
      vertex -7.76753 -1.91453 0
      vertex -6.84703 -1.45538 0
    endloop
  endfacet
  facet normal 0 0 -1
    outer loop
      vertex -6.72883 -1.92946 0
      vertex -7.76753 -1.91453 0
      vertex -6.79207 -1.69345 0
    endloop
  endfacet
  facet normal 0 0 -1
    outer loop
      vertex 6.96165 0.731699 0
      vertex 8 0 0
      vertex 6.98295 0.488295 0
    endloop
  endfacet
  facet normal 0 0 -1
    outer loop
      vertex 8 0 0
      vertex 6.96165 0.731699 0
      vertex 7.76753 1.91453 0
    endloop
  endfacet
  facet normal 0 0 -1
    outer loop
      vertex 6.93188 0.974212 0
      vertex 7.76753 1.91453 0
      vertex 6.96165 0.731699 0
    endloop
  endfacet
  facet normal 0 0 -1
    outer loop
      vertex 6.89365 1.21554 0
      vertex 7.76753 1.91453 0
      vertex 6.93188 0.974212 0
    endloop
  endfacet
  facet normal 0 0 -1
    outer loop
      vertex 6.84703 1.45538 0
      vertex 7.76753 1.91453 0
      vertex 6.89365 1.21554 0
    endloop
  endfacet
  facet normal 0 0 -1
    outer loop
      vertex 6.79207 1.69345 0
      vertex 7.76753 1.91453 0
      vertex 6.84703 1.45538 0
    endloop
  endfacet
  facet normal 0 0 -1
    outer loop
      vertex 6.72883 1.92946 0
      vertex 7.76753 1.91453 0
      vertex 6.79207 1.69345 0
    endloop
  endfacet
  facet normal 0 0 -1
    outer loop
      vertex 6.6574 2.16312 0
      vertex 7.76753 1.91453 0
      vertex 6.72883 1.92946 0
    endloop
  endfacet
  facet normal 0 0 -1
    outer loop
      vertex 6.57785 2.39414 0
      vertex 7.76753 1.91453 0
      vertex 6.6574 2.16312 0
    endloop
  endfacet
  facet normal 0 0 -1
    outer loop
      vertex 7.76753 1.91453 0
      vertex 6.57785 2.39414 0
      vertex 7.08365 3.71778 0
    endloop
  endfacet
  facet normal 0 0 -1
    outer loop
      vertex 6.49029 2.62225 0
      vertex 7.08365 3.71778 0
      vertex 6.57785 2.39414 0
    endloop
  endfacet
  facet normal 0 0 -1
    outer loop
      vertex 6.39482 2.84716 0
      vertex 7.08365 3.71778 0
      vertex 6.49029 2.62225 0
    endloop
  endfacet
  facet normal 0 0 -1
    outer loop
      vertex 6.29156 3.0686 0
      vertex 7.08365 3.71778 0
      vertex 6.39482 2.84716 0
    endloop
  endfacet
  facet normal 0 0 -1
    outer loop
      vertex 6.18063 3.2863 0
      vertex 7.08365 3.71778 0
      vertex 6.29156 3.0686 0
    endloop
  endfacet
  facet normal 0 0 -1
    outer loop
      vertex 6.06218 3.5 0
      vertex 7.08365 3.71778 0
      vertex 6.18063 3.2863 0
    endloop
  endfacet
  facet normal 0 0 -1
    outer loop
      vertex 5.93634 3.70943 0
      vertex 7.08365 3.71778 0
      vertex 6.06218 3.5 0
    endloop
  endfacet
  facet normal 0 0 -1
    outer loop
      vertex 5.80326 3.91435 0
      vertex 7.08365 3.71778 0
      vertex 5.93634 3.70943 0
    endloop
  endfacet
  facet normal 0 0 -1
    outer loop
      vertex 7.08365 3.71778 0
      vertex 5.80326 3.91435 0
      vertex 5.98809 5.30498 0
    endloop
  endfacet
  facet normal 0 0 -1
    outer loop
      vertex 5.66312 4.1145 0
      vertex 5.98809 5.30498 0
      vertex 5.80326 3.91435 0
    endloop
  endfacet
  facet normal 0 0 -1
    outer loop
      vertex 5.51608 4.30963 0
      vertex 5.98809 5.30498 0
      vertex 5.66312 4.1145 0
    endloop
  endfacet
  facet normal 0 0 -1
    outer loop
      vertex 5.36231 4.49951 0
      vertex 5.98809 5.30498 0
      vertex 5.51608 4.30963 0
    endloop
  endfacet
  facet normal 0 0 -1
    outer loop
      vertex 5.20201 4.68391 0
      vertex 5.98809 5.30498 0
      vertex 5.36231 4.49951 0
    endloop
  endfacet
  facet normal 0 0 -1
    outer loop
      vertex 5.03538 4.86261 0
      vertex 5.98809 5.30498 0
      vertex 5.20201 4.68391 0
    endloop
  endfacet
  facet normal 0 0 -1
    outer loop
      vertex 4.86261 5.03538 0
      vertex 5.98809 5.30498 0
      vertex 5.03538 4.86261 0
    endloop
  endfacet
  facet normal 0 0 -1
    outer loop
      vertex 4.68391 5.20201 0
      vertex 5.98809 5.30498 0
      vertex 4.86261 5.03538 0
    endloop
  endfacet
  facet normal 0 0 -1
    outer loop
      vertex 4.68391 5.20201 0
      vertex 4.54452 6.58387 0
      vertex 5.98809 5.30498 0
    endloop
  endfacet
  facet normal 0 0 -1
    outer loop
      vertex 4.49951 5.36231 0
      vertex 4.54452 6.58387 0
      vertex 4.68391 5.20201 0
    endloop
  endfacet
  facet normal 0 0 -1
    outer loop
      vertex 4.30963 5.51608 0
      vertex 4.54452 6.58387 0
      vertex 4.49951 5.36231 0
    endloop
  endfacet
  facet normal 0 0 -1
    outer loop
      vertex 4.1145 5.66312 0
      vertex 4.54452 6.58387 0
      vertex 4.30963 5.51608 0
    endloop
  endfacet
  facet normal 0 0 -1
    outer loop
      vertex 3.91435 5.80326 0
      vertex 4.54452 6.58387 0
      vertex 4.1145 5.66312 0
    endloop
  endfacet
  facet normal 0 0 -1
    outer loop
      vertex 3.70943 5.93634 0
      vertex 4.54452 6.58387 0
      vertex 3.91435 5.80326 0
    endloop
  endfacet
  facet normal 0 0 -1
    outer loop
      vertex 3.5 6.06218 0
      vertex 4.54452 6.58387 0
      vertex 3.70943 5.93634 0
    endloop
  endfacet
  facet normal 0 0 -1
    outer loop
      vertex 3.2863 6.18063 0
      vertex 4.54452 6.58387 0
      vertex 3.5 6.06218 0
    endloop
  endfacet
  facet normal 0 0 -1
    outer loop
      vertex 2.83684 7.48013 0
      vertex 3.2863 6.18063 0
      vertex 3.0686 6.29156 0
    endloop
  endfacet
  facet normal 0 0 -1
    outer loop
      vertex 2.83684 7.48013 0
      vertex 3.0686 6.29156 0
      vertex 2.84716 6.39482 0
    endloop
  endfacet
  facet normal 0 0 -1
    outer loop
      vertex 3.2863 6.18063 0
      vertex 2.83684 7.48013 0
      vertex 4.54452 6.58387 0
    endloop
  endfacet
  facet normal 0 0 -1
    outer loop
      vertex 2.62225 6.49029 0
      vertex 2.83684 7.48013 0
      vertex 2.84716 6.39482 0
    endloop
  endfacet
  facet normal 0 0 -1
    outer loop
      vertex 2.39414 6.57785 0
      vertex 2.83684 7.48013 0
      vertex 2.62225 6.49029 0
    endloop
  endfacet
  facet normal 0 0 -1
    outer loop
      vertex 2.16312 6.6574 0
      vertex 2.83684 7.48013 0
      vertex 2.39414 6.57785 0
    endloop
  endfacet
  facet normal 0 0 -1
    outer loop
      vertex 1.92946 6.72883 0
      vertex 2.83684 7.48013 0
      vertex 2.16312 6.6574 0
    endloop
  endfacet
  facet normal 0 0 -1
    outer loop
      vertex 1.69345 6.79207 0
      vertex 2.83684 7.48013 0
      vertex 1.92946 6.72883 0
    endloop
  endfacet
  facet normal 0 0 -1
    outer loop
      vertex 0.964293 7.94167 0
      vertex 1.69345 6.79207 0
      vertex 1.45538 6.84703 0
    endloop
  endfacet
  facet normal 0 0 -1
    outer loop
      vertex 0.964293 7.94167 0
      vertex 1.45538 6.84703 0
      vertex 1.21554 6.89365 0
    endloop
  endfacet
  facet normal 0 0 -1
    outer loop
      vertex 0.964293 7.94167 0
      vertex 1.21554 6.89365 0
      vertex 0.974212 6.93188 0
    endloop
  endfacet
  facet normal 0 0 -1
    outer loop
      vertex 1.69345 6.79207 0
      vertex 0.964293 7.94167 0
      vertex 2.83684 7.48013 0
    endloop
  endfacet
  facet normal 0 0 -1
    outer loop
      vertex 0.731699 6.96165 0
      vertex 0.964293 7.94167 0
      vertex 0.974212 6.93188 0
    endloop
  endfacet
  facet normal 0 0 -1
    outer loop
      vertex 0.488295 6.98295 0
      vertex 0.964293 7.94167 0
      vertex 0.731699 6.96165 0
    endloop
  endfacet
  facet normal 0 0 -1
    outer loop
      vertex 0.244296 6.99574 0
      vertex 0.964293 7.94167 0
      vertex 0.488295 6.98295 0
    endloop
  endfacet
  facet normal 0 0 -1
    outer loop
      vertex 0 7 0
      vertex 0.964293 7.94167 0
      vertex 0.244296 6.99574 0
    endloop
  endfacet
  facet normal 0 0 -1
    outer loop
      vertex -0.964293 7.94167 0
      vertex 0 7 0
      vertex -0.244296 6.99574 0
    endloop
  endfacet
  facet normal 0 0 -1
    outer loop
      vertex -0.964293 7.94167 0
      vertex -0.244296 6.99574 0
      vertex -0.488295 6.98295 0
    endloop
  endfacet
  facet normal 0 0 -1
    outer loop
      vertex -0.964293 7.94167 0
      vertex -0.488295 6.98295 0
      vertex -0.731699 6.96165 0
    endloop
  endfacet
  facet normal 0 0 -1
    outer loop
      vertex 0 7 0
      vertex -0.964293 7.94167 0
      vertex 0.964293 7.94167 0
    endloop
  endfacet
  facet normal 0 0 -1
    outer loop
      vertex -0.974212 6.93188 0
      vertex -0.964293 7.94167 0
      vertex -0.731699 6.96165 0
    endloop
  endfacet
  facet normal 0 0 -1
    outer loop
      vertex -1.21554 6.89365 0
      vertex -0.964293 7.94167 0
      vertex -0.974212 6.93188 0
    endloop
  endfacet
  facet normal 0 0 -1
    outer loop
      vertex -1.45538 6.84703 0
      vertex -0.964293 7.94167 0
      vertex -1.21554 6.89365 0
    endloop
  endfacet
  facet normal 0 0 -1
    outer loop
      vertex -1.69345 6.79207 0
      vertex -0.964293 7.94167 0
      vertex -1.45538 6.84703 0
    endloop
  endfacet
  facet normal 0 0 -1
    outer loop
      vertex -2.83684 7.48013 0
      vertex -1.69345 6.79207 0
      vertex -1.92946 6.72883 0
    endloop
  endfacet
  facet normal 0 0 -1
    outer loop
      vertex -2.83684 7.48013 0
      vertex -1.92946 6.72883 0
      vertex -2.16312 6.6574 0
    endloop
  endfacet
  facet normal 0 0 -1
    outer loop
      vertex -2.83684 7.48013 0
      vertex -2.16312 6.6574 0
      vertex -2.39414 6.57785 0
    endloop
  endfacet
  facet normal 0 0 -1
    outer loop
      vertex -2.83684 7.48013 0
      vertex -2.39414 6.57785 0
      vertex -2.62225 6.49029 0
    endloop
  endfacet
  facet normal 0 0 -1
    outer loop
      vertex -1.69345 6.79207 0
      vertex -2.83684 7.48013 0
      vertex -0.964293 7.94167 0
    endloop
  endfacet
  facet normal 0 0 -1
    outer loop
      vertex -2.84716 6.39482 0
      vertex -2.83684 7.48013 0
      vertex -2.62225 6.49029 0
    endloop
  endfacet
  facet normal 0 0 -1
    outer loop
      vertex -3.0686 6.29156 0
      vertex -2.83684 7.48013 0
      vertex -2.84716 6.39482 0
    endloop
  endfacet
  facet normal 0 0 -1
    outer loop
      vertex -3.2863 6.18063 0
      vertex -2.83684 7.48013 0
      vertex -3.0686 6.29156 0
    endloop
  endfacet
  facet normal 0 0 -1
    outer loop
      vertex -4.54452 6.58387 0
      vertex -3.2863 6.18063 0
      vertex -3.5 6.06218 0
    endloop
  endfacet
  facet normal 0 0 -1
    outer loop
      vertex -4.54452 6.58387 0
      vertex -3.5 6.06218 0
      vertex -3.70943 5.93634 0
    endloop
  endfacet
  facet normal 0 0 -1
    outer loop
      vertex -4.54452 6.58387 0
      vertex -3.70943 5.93634 0
      vertex -3.91435 5.80326 0
    endloop
  endfacet
  facet normal 0 0 -1
    outer loop
      vertex -4.54452 6.58387 0
      vertex -3.91435 5.80326 0
      vertex -4.1145 5.66312 0
    endloop
  endfacet
  facet normal 0 0 -1
    outer loop
      vertex -4.54452 6.58387 0
      vertex -4.1145 5.66312 0
      vertex -4.30963 5.51608 0
    endloop
  endfacet
  facet normal 0 0 -1
    outer loop
      vertex -4.54452 6.58387 0
      vertex -4.30963 5.51608 0
      vertex -4.49951 5.36231 0
    endloop
  endfacet
  facet normal 0 0 -1
    outer loop
      vertex -3.2863 6.18063 0
      vertex -4.54452 6.58387 0
      vertex -2.83684 7.48013 0
    endloop
  endfacet
  facet normal 0 0 -1
    outer loop
      vertex -4.68391 5.20201 0
      vertex -4.54452 6.58387 0
      vertex -4.49951 5.36231 0
    endloop
  endfacet
  facet normal 0 0 -1
    outer loop
      vertex -5.98809 5.30498 0
      vertex -4.68391 5.20201 0
      vertex -4.86261 5.03538 0
    endloop
  endfacet
  facet normal 0 0 -1
    outer loop
      vertex -5.98809 5.30498 0
      vertex -4.86261 5.03538 0
      vertex -5.03538 4.86261 0
    endloop
  endfacet
  facet normal 0 0 -1
    outer loop
      vertex -5.98809 5.30498 0
      vertex -5.03538 4.86261 0
      vertex -5.20201 4.68391 0
    endloop
  endfacet
  facet normal 0 0 -1
    outer loop
      vertex -5.98809 5.30498 0
      vertex -5.20201 4.68391 0
      vertex -5.36231 4.49951 0
    endloop
  endfacet
  facet normal 0 0 -1
    outer loop
      vertex -5.98809 5.30498 0
      vertex -5.36231 4.49951 0
      vertex -5.51608 4.30963 0
    endloop
  endfacet
  facet normal 0 0 -1
    outer loop
      vertex -5.98809 5.30498 0
      vertex -5.51608 4.30963 0
      vertex -5.66312 4.1145 0
    endloop
  endfacet
  facet normal 0 0 -1
    outer loop
      vertex -5.98809 5.30498 0
      vertex -5.66312 4.1145 0
      vertex -5.80326 3.91435 0
    endloop
  endfacet
  facet normal 0 0 -1
    outer loop
      vertex -7.08365 3.71778 0
      vertex -5.80326 3.91435 0
      vertex -5.93634 3.70943 0
    endloop
  endfacet
  facet normal 0 0 -1
    outer loop
      vertex -4.68391 5.20201 0
      vertex -5.98809 5.30498 0
      vertex -4.54452 6.58387 0
    endloop
  endfacet
  facet normal 0 0 -1
    outer loop
      vertex -7.08365 3.71778 0
      vertex -5.93634 3.70943 0
      vertex -6.06218 3.5 0
    endloop
  endfacet
  facet normal 0 0 -1
    outer loop
      vertex -7.08365 3.71778 0
      vertex -6.06218 3.5 0
      vertex -6.18063 3.2863 0
    endloop
  endfacet
  facet normal 0 0 -1
    outer loop
      vertex -7.08365 3.71778 0
      vertex -6.18063 3.2863 0
      vertex -6.29156 3.0686 0
    endloop
  endfacet
  facet normal 0 0 -1
    outer loop
      vertex -7.08365 3.71778 0
      vertex -6.29156 3.0686 0
      vertex -6.39482 2.84716 0
    endloop
  endfacet
  facet normal 0 0 -1
    outer loop
      vertex -7.08365 3.71778 0
      vertex -6.39482 2.84716 0
      vertex -6.49029 2.62225 0
    endloop
  endfacet
  facet normal 0 0 -1
    outer loop
      vertex -7.08365 3.71778 0
      vertex -6.49029 2.62225 0
      vertex -6.57785 2.39414 0
    endloop
  endfacet
  facet normal 0 0 -1
    outer loop
      vertex -7.76753 1.91453 0
      vertex -6.57785 2.39414 0
      vertex -6.6574 2.16312 0
    endloop
  endfacet
  facet normal 0 0 -1
    outer loop
      vertex -7.76753 1.91453 0
      vertex -6.6574 2.16312 0
      vertex -6.72883 1.92946 0
    endloop
  endfacet
  facet normal 0 0 -1
    outer loop
      vertex -7.76753 1.91453 0
      vertex -6.72883 1.92946 0
      vertex -6.79207 1.69345 0
    endloop
  endfacet
  facet normal 0 0 -1
    outer loop
      vertex -7.76753 1.91453 0
      vertex -6.79207 1.69345 0
      vertex -6.84703 1.45538 0
    endloop
  endfacet
  facet normal 0 0 -1
    outer loop
      vertex -6.98295 -0.488295 0
      vertex -8 0 0
      vertex -6.99574 -0.244296 0
    endloop
  endfacet
  facet normal -0 0 -1
    outer loop
      vertex -5.80326 3.91435 0
      vertex -7.08365 3.71778 0
      vertex -5.98809 5.30498 0
    endloop
  endfacet
  facet normal 0 0 -1
    outer loop
      vertex -7.76753 1.91453 0
      vertex -6.84703 1.45538 0
      vertex -6.89365 1.21554 0
    endloop
  endfacet
  facet normal 0 0 -1
    outer loop
      vertex -7.76753 1.91453 0
      vertex -6.89365 1.21554 0
      vertex -6.93188 0.974212 0
    endloop
  endfacet
  facet normal 0 0 -1
    outer loop
      vertex -7.76753 1.91453 0
      vertex -6.93188 0.974212 0
      vertex -6.96165 0.731699 0
    endloop
  endfacet
  facet normal 0 0 -1
    outer loop
      vertex -8 0 0
      vertex -6.96165 0.731699 0
      vertex -6.98295 0.488295 0
    endloop
  endfacet
  facet normal 0 0 -1
    outer loop
      vertex -8 0 0
      vertex -6.98295 0.488295 0
      vertex -6.99574 0.244296 0
    endloop
  endfacet
  facet normal 0 0 -1
    outer loop
      vertex -6.99574 -0.244296 0
      vertex -8 0 0
      vertex -7 0 0
    endloop
  endfacet
  facet normal 0 0 -1
    outer loop
      vertex -7 0 0
      vertex -8 0 0
      vertex -6.99574 0.244296 0
    endloop
  endfacet
  facet normal -0 0 -1
    outer loop
      vertex -6.57785 2.39414 0
      vertex -7.76753 1.91453 0
      vertex -7.08365 3.71778 0
    endloop
  endfacet
  facet normal -0 0 -1
    outer loop
      vertex -6.96165 0.731699 0
      vertex -8 0 0
      vertex -7.76753 1.91453 0
    endloop
  endfacet
  facet normal 0.822984 0.568064 -0
    outer loop
      vertex 6.1986 5 5
      vertex 5.98809 5.30498 8
      vertex 6.1986 5 8
    endloop
  endfacet
  facet normal 0.822984 0.568064 0
    outer loop
      vertex 5.98809 5.30498 8
      vertex 6.1986 5 5
      vertex 5.98809 5.30498 0
    endloop
  endfacet
  facet normal 0.822984 0.568065 -0
    outer loop
      vertex 7.08365 3.71778 0
      vertex 6.1986 5 5
      vertex 7.08365 3.71778 5
    endloop
  endfacet
  facet normal 0.822984 0.568065 2.01967e-08
    outer loop
      vertex 6.1986 5 5
      vertex 7.08365 3.71778 0
      vertex 5.98809 5.30498 0
    endloop
  endfacet
  facet normal 0 0 -1
    outer loop
      vertex 6.1986 5 8
      vertex 5.98809 5.30498 8
      vertex 7.08365 3.71778 8
    endloop
  endfacet
  facet normal 0.935016 0.354605 0
    outer loop
      vertex 7.76753 1.91453 5
      vertex 7.08365 3.71778 0
      vertex 7.08365 3.71778 5
    endloop
  endfacet
  facet normal 0.935016 0.354605 0
    outer loop
      vertex 7.08365 3.71778 0
      vertex 7.76753 1.91453 5
      vertex 7.76753 1.91453 0
    endloop
  endfacet
  facet normal 0.239316 0.970942 -0
    outer loop
      vertex 2.83684 7.48013 0
      vertex 0.964293 7.94167 5
      vertex 2.83684 7.48013 5
    endloop
  endfacet
  facet normal 0.239316 0.970942 0
    outer loop
      vertex 0.964293 7.94167 5
      vertex 2.83684 7.48013 0
      vertex 0.964293 7.94167 0
    endloop
  endfacet
  facet normal 0.464723 0.885456 -0
    outer loop
      vertex 4.54452 6.58387 0
      vertex 2.83684 7.48013 5
      vertex 4.54452 6.58387 5
    endloop
  endfacet
  facet normal 0.464723 0.885456 0
    outer loop
      vertex 2.83684 7.48013 5
      vertex 4.54452 6.58387 0
      vertex 2.83684 7.48013 0
    endloop
  endfacet
  facet normal -0.822984 0.568064 0
    outer loop
      vertex -5.98809 5.30498 0
      vertex -6.1986 5 5
      vertex -5.98809 5.30498 8
    endloop
  endfacet
  facet normal -0.822984 0.568065 2.01967e-08
    outer loop
      vertex -7.08365 3.71778 0
      vertex -6.1986 5 5
      vertex -5.98809 5.30498 0
    endloop
  endfacet
  facet normal -0.822984 0.568065 0
    outer loop
      vertex -6.1986 5 5
      vertex -7.08365 3.71778 0
      vertex -7.08365 3.71778 5
    endloop
  endfacet
  facet normal -0.822984 0.568064 0
    outer loop
      vertex -5.98809 5.30498 8
      vertex -6.1986 5 5
      vertex -6.1986 5 8
    endloop
  endfacet
  facet normal -0 0 -1
    outer loop
      vertex -6.1986 5 8
      vertex -7.08365 3.71778 8
      vertex -5.98809 5.30498 8
    endloop
  endfacet
  facet normal -0.935016 0.354605 0
    outer loop
      vertex -7.76753 1.91453 0
      vertex -7.08365 3.71778 5
      vertex -7.08365 3.71778 0
    endloop
  endfacet
  facet normal -0.935016 0.354605 0
    outer loop
      vertex -7.08365 3.71778 5
      vertex -7.76753 1.91453 0
      vertex -7.76753 1.91453 5
    endloop
  endfacet
  facet normal -0.239316 0.970942 0
    outer loop
      vertex -0.964293 7.94167 0
      vertex -2.83684 7.48013 5
      vertex -0.964293 7.94167 5
    endloop
  endfacet
  facet normal -0.239316 0.970942 0
    outer loop
      vertex -2.83684 7.48013 5
      vertex -0.964293 7.94167 0
      vertex -2.83684 7.48013 0
    endloop
  endfacet
  facet normal 0.992709 -0.120537 0
    outer loop
      vertex 7.76753 -1.91453 5
      vertex 8 0 0
      vertex 8 0 5
    endloop
  endfacet
  facet normal 0.992709 -0.120537 0
    outer loop
      vertex 8 0 0
      vertex 7.76753 -1.91453 5
      vertex 7.76753 -1.91453 0
    endloop
  endfacet
  facet normal 0.663122 -0.748511 0
    outer loop
      vertex 4.54452 -6.58387 5
      vertex 4.54452 -6.58387 0
      vertex 5 -6.18035 5
    endloop
  endfacet
  facet normal 0.663123 -0.748511 0
    outer loop
      vertex 5 -6.18035 5
      vertex 5.98809 -5.30498 8
      vertex 5 -6.18035 8
    endloop
  endfacet
  facet normal 0.663123 -0.748511 -2.85843e-08
    outer loop
      vertex 5.98809 -5.30498 0
      vertex 5 -6.18035 5
      vertex 4.54452 -6.58387 0
    endloop
  endfacet
  facet normal 0.663123 -0.748511 0
    outer loop
      vertex 5 -6.18035 5
      vertex 5.98809 -5.30498 0
      vertex 5.98809 -5.30498 8
    endloop
  endfacet
  facet normal 0.822984 -0.568064 0
    outer loop
      vertex 6.1986 -5 8
      vertex 5.98809 -5.30498 8
      vertex 6.1986 -5 5
    endloop
  endfacet
  facet normal 0.822984 -0.568065 0
    outer loop
      vertex 6.1986 -5 5
      vertex 7.08365 -3.71778 0
      vertex 7.08365 -3.71778 5
    endloop
  endfacet
  facet normal 0.822984 -0.568065 2.01967e-08
    outer loop
      vertex 6.1986 -5 5
      vertex 5.98809 -5.30498 0
      vertex 7.08365 -3.71778 0
    endloop
  endfacet
  facet normal 0.822984 -0.568064 0
    outer loop
      vertex 5.98809 -5.30498 0
      vertex 6.1986 -5 5
      vertex 5.98809 -5.30498 8
    endloop
  endfacet
  facet normal -0.935016 -0.354605 0
    outer loop
      vertex -7.08365 -3.71778 0
      vertex -7.76753 -1.91453 5
      vertex -7.76753 -1.91453 0
    endloop
  endfacet
  facet normal -0.935016 -0.354605 0
    outer loop
      vertex -7.76753 -1.91453 5
      vertex -7.08365 -3.71778 0
      vertex -7.08365 -3.71778 5
    endloop
  endfacet
  facet normal -0.992709 -0.120537 0
    outer loop
      vertex -7.76753 -1.91453 0
      vertex -8 0 5
      vertex -8 0 0
    endloop
  endfacet
  facet normal -0.992709 -0.120537 0
    outer loop
      vertex -8 0 5
      vertex -7.76753 -1.91453 0
      vertex -7.76753 -1.91453 5
    endloop
  endfacet
  facet normal -0.822984 -0.568065 0
    outer loop
      vertex -7.08365 -3.71778 0
      vertex -6.1986 -5 5
      vertex -7.08365 -3.71778 5
    endloop
  endfacet
  facet normal -0.822984 -0.568065 2.01967e-08
    outer loop
      vertex -5.98809 -5.30498 0
      vertex -6.1986 -5 5
      vertex -7.08365 -3.71778 0
    endloop
  endfacet
  facet normal -0.822984 -0.568064 -0
    outer loop
      vertex -5.98809 -5.30498 8
      vertex -6.1986 -5 5
      vertex -5.98809 -5.30498 0
    endloop
  endfacet
  facet normal -0.822984 -0.568064 0
    outer loop
      vertex -6.1986 -5 5
      vertex -5.98809 -5.30498 8
      vertex -6.1986 -5 8
    endloop
  endfacet
  facet normal 0.935016 -0.354605 0
    outer loop
      vertex 7.08365 -3.71778 5
      vertex 7.76753 -1.91453 0
      vertex 7.76753 -1.91453 5
    endloop
  endfacet
  facet normal 0.935016 -0.354605 0
    outer loop
      vertex 7.76753 -1.91453 0
      vertex 7.08365 -3.71778 5
      vertex 7.08365 -3.71778 0
    endloop
  endfacet
  facet normal -0.239316 -0.970942 0
    outer loop
      vertex -2.83684 -7.48013 0
      vertex -0.964293 -7.94167 5
      vertex -2.83684 -7.48013 5
    endloop
  endfacet
  facet normal -0.239316 -0.970942 -0
    outer loop
      vertex -0.964293 -7.94167 5
      vertex -2.83684 -7.48013 0
      vertex -0.964293 -7.94167 0
    endloop
  endfacet
  facet normal 0.464723 -0.885456 0
    outer loop
      vertex 2.83684 -7.48013 0
      vertex 4.54452 -6.58387 5
      vertex 2.83684 -7.48013 5
    endloop
  endfacet
  facet normal 0.464723 -0.885456 0
    outer loop
      vertex 4.54452 -6.58387 5
      vertex 2.83684 -7.48013 0
      vertex 4.54452 -6.58387 0
    endloop
  endfacet
  facet normal 0.239316 -0.970942 0
    outer loop
      vertex 0.964293 -7.94167 0
      vertex 2.83684 -7.48013 5
      vertex 0.964293 -7.94167 5
    endloop
  endfacet
  facet normal 0.239316 -0.970942 0
    outer loop
      vertex 2.83684 -7.48013 5
      vertex 0.964293 -7.94167 0
      vertex 2.83684 -7.48013 0
    endloop
  endfacet
  facet normal -0.464723 -0.885456 0
    outer loop
      vertex -4.54452 -6.58387 0
      vertex -2.83684 -7.48013 5
      vertex -4.54452 -6.58387 5
    endloop
  endfacet
  facet normal -0.464723 -0.885456 -0
    outer loop
      vertex -2.83684 -7.48013 5
      vertex -4.54452 -6.58387 0
      vertex -2.83684 -7.48013 0
    endloop
  endfacet
  facet normal -0.663123 -0.748511 0
    outer loop
      vertex -5.98809 -5.30498 8
      vertex -5 -6.18035 5
      vertex -5 -6.18035 8
    endloop
  endfacet
  facet normal -0.663123 -0.748511 0
    outer loop
      vertex -5.98809 -5.30498 0
      vertex -5 -6.18035 5
      vertex -5.98809 -5.30498 8
    endloop
  endfacet
  facet normal -0.663123 -0.748511 -2.85843e-08
    outer loop
      vertex -4.54452 -6.58387 0
      vertex -5 -6.18035 5
      vertex -5.98809 -5.30498 0
    endloop
  endfacet
  facet normal -0.663122 -0.748511 0
    outer loop
      vertex -5 -6.18035 5
      vertex -4.54452 -6.58387 0
      vertex -4.54452 -6.58387 5
    endloop
  endfacet
  facet normal 0 0 1
    outer loop
      vertex -5.98809 -5.30498 8
      vertex -5 -6.18035 8
      vertex -4.54452 -6.58387 8
    endloop
  endfacet
  facet normal 0.358365 0.933582 -0
    outer loop
      vertex -2.39414 -6.57785 0
      vertex -2.62225 -6.49029 5
      vertex -2.39414 -6.57785 5
    endloop
  endfacet
  facet normal 0.358365 0.933582 0
    outer loop
      vertex -2.62225 -6.49029 5
      vertex -2.39414 -6.57785 0
      vertex -2.62225 -6.49029 0
    endloop
  endfacet
  facet normal 0.920503 0.390734 0
    outer loop
      vertex -6.39482 -2.84716 5
      vertex -6.49029 -2.62225 0
      vertex -6.49029 -2.62225 5
    endloop
  endfacet
  facet normal 0.920503 0.390734 0
    outer loop
      vertex -6.49029 -2.62225 0
      vertex -6.39482 -2.84716 5
      vertex -6.39482 -2.84716 0
    endloop
  endfacet
  facet normal -0.965926 -0.258818 0
    outer loop
      vertex 6.79207 1.69345 0
      vertex 6.72883 1.92946 5
      vertex 6.72883 1.92946 0
    endloop
  endfacet
  facet normal -0.965926 -0.258818 0
    outer loop
      vertex 6.72883 1.92946 5
      vertex 6.79207 1.69345 0
      vertex 6.79207 1.69345 5
    endloop
  endfacet
  facet normal -0.819152 -0.573577 0
    outer loop
      vertex 5.80326 3.91435 0
      vertex 5.66312 4.1145 5
      vertex 5.66312 4.1145 0
    endloop
  endfacet
  facet normal -0.819152 -0.573577 0
    outer loop
      vertex 5.66312 4.1145 5
      vertex 5.80326 3.91435 0
      vertex 5.80326 3.91435 5
    endloop
  endfacet
  facet normal -0.515039 -0.857167 0
    outer loop
      vertex 3.5 6.06218 0
      vertex 3.70943 5.93634 5
      vertex 3.5 6.06218 5
    endloop
  endfacet
  facet normal -0.515039 -0.857167 -0
    outer loop
      vertex 3.70943 5.93634 5
      vertex 3.5 6.06218 0
      vertex 3.70943 5.93634 0
    endloop
  endfacet
  facet normal -0.0523337 -0.99863 0
    outer loop
      vertex 0.244296 6.99574 0
      vertex 0.488295 6.98295 5
      vertex 0.244296 6.99574 5
    endloop
  endfacet
  facet normal -0.0523337 -0.99863 -0
    outer loop
      vertex 0.488295 6.98295 5
      vertex 0.244296 6.99574 0
      vertex 0.488295 6.98295 0
    endloop
  endfacet
  facet normal 0.99863 -0.0523337 0
    outer loop
      vertex -6.99574 0.244296 5
      vertex -6.98295 0.488295 0
      vertex -6.98295 0.488295 5
    endloop
  endfacet
  facet normal 0.99863 -0.0523337 0
    outer loop
      vertex -6.98295 0.488295 0
      vertex -6.99574 0.244296 5
      vertex -6.99574 0.244296 0
    endloop
  endfacet
  facet normal 0.891006 -0.453992 0
    outer loop
      vertex -6.29156 3.0686 5
      vertex -6.18063 3.2863 0
      vertex -6.18063 3.2863 5
    endloop
  endfacet
  facet normal 0.891006 -0.453992 0
    outer loop
      vertex -6.18063 3.2863 0
      vertex -6.29156 3.0686 5
      vertex -6.29156 3.0686 0
    endloop
  endfacet
  facet normal 0.292371 -0.956305 0
    outer loop
      vertex -2.16312 6.6574 0
      vertex -1.92946 6.72883 5
      vertex -2.16312 6.6574 5
    endloop
  endfacet
  facet normal 0.292371 -0.956305 0
    outer loop
      vertex -1.92946 6.72883 5
      vertex -2.16312 6.6574 0
      vertex -1.92946 6.72883 0
    endloop
  endfacet
  facet normal 0.54464 -0.83867 0
    outer loop
      vertex -3.91435 5.80326 0
      vertex -3.70943 5.93634 5
      vertex -3.91435 5.80326 5
    endloop
  endfacet
  facet normal 0.54464 -0.83867 0
    outer loop
      vertex -3.70943 5.93634 5
      vertex -3.91435 5.80326 0
      vertex -3.70943 5.93634 0
    endloop
  endfacet
  facet normal -0.90631 0.422615 0
    outer loop
      vertex 6.29156 -3.0686 0
      vertex 6.39482 -2.84716 5
      vertex 6.39482 -2.84716 0
    endloop
  endfacet
  facet normal -0.90631 0.422615 0
    outer loop
      vertex 6.39482 -2.84716 5
      vertex 6.29156 -3.0686 0
      vertex 6.29156 -3.0686 5
    endloop
  endfacet
  facet normal -0.19081 0.981627 0
    outer loop
      vertex 1.45538 -6.84703 0
      vertex 1.21554 -6.89365 5
      vertex 1.45538 -6.84703 5
    endloop
  endfacet
  facet normal -0.19081 0.981627 0
    outer loop
      vertex 1.21554 -6.89365 5
      vertex 1.45538 -6.84703 0
      vertex 1.21554 -6.89365 0
    endloop
  endfacet
  facet normal -0.656058 0.75471 0
    outer loop
      vertex 4.68391 -5.20201 0
      vertex 4.49951 -5.36231 5
      vertex 4.68391 -5.20201 5
    endloop
  endfacet
  facet normal -0.656058 0.75471 0
    outer loop
      vertex 4.49951 -5.36231 5
      vertex 4.68391 -5.20201 0
      vertex 4.49951 -5.36231 0
    endloop
  endfacet
  facet normal -0.891006 -0.453992 0
    outer loop
      vertex 6.29156 3.0686 0
      vertex 6.18063 3.2863 5
      vertex 6.18063 3.2863 0
    endloop
  endfacet
  facet normal -0.891006 -0.453992 0
    outer loop
      vertex 6.18063 3.2863 5
      vertex 6.29156 3.0686 0
      vertex 6.29156 3.0686 5
    endloop
  endfacet
  facet normal -0.0871575 -0.996195 0
    outer loop
      vertex 0.488295 6.98295 0
      vertex 0.731699 6.96165 5
      vertex 0.488295 6.98295 5
    endloop
  endfacet
  facet normal -0.0871575 -0.996195 -0
    outer loop
      vertex 0.731699 6.96165 5
      vertex 0.488295 6.98295 0
      vertex 0.731699 6.96165 0
    endloop
  endfacet
  facet normal 0.996195 -0.0871575 0
    outer loop
      vertex -6.98295 0.488295 5
      vertex -6.96165 0.731699 0
      vertex -6.96165 0.731699 5
    endloop
  endfacet
  facet normal 0.996195 -0.0871575 0
    outer loop
      vertex -6.96165 0.731699 0
      vertex -6.98295 0.488295 5
      vertex -6.98295 0.488295 0
    endloop
  endfacet
  facet normal 0.75471 -0.656058 0
    outer loop
      vertex -5.36231 4.49951 5
      vertex -5.20201 4.68391 0
      vertex -5.20201 4.68391 5
    endloop
  endfacet
  facet normal 0.75471 -0.656058 0
    outer loop
      vertex -5.20201 4.68391 0
      vertex -5.36231 4.49951 5
      vertex -5.36231 4.49951 0
    endloop
  endfacet
  facet normal 0.87462 -0.48481 0
    outer loop
      vertex -6.18063 3.2863 5
      vertex -6.06218 3.5 0
      vertex -6.06218 3.5 5
    endloop
  endfacet
  facet normal 0.87462 -0.48481 0
    outer loop
      vertex -6.06218 3.5 0
      vertex -6.18063 3.2863 5
      vertex -6.18063 3.2863 0
    endloop
  endfacet
  facet normal 0.0523337 -0.99863 0
    outer loop
      vertex -0.488295 6.98295 0
      vertex -0.244296 6.99574 5
      vertex -0.488295 6.98295 5
    endloop
  endfacet
  facet normal 0.0523337 -0.99863 0
    outer loop
      vertex -0.244296 6.99574 5
      vertex -0.488295 6.98295 0
      vertex -0.244296 6.99574 0
    endloop
  endfacet
  facet normal 0.258818 -0.965926 0
    outer loop
      vertex -1.92946 6.72883 0
      vertex -1.69345 6.79207 5
      vertex -1.92946 6.72883 5
    endloop
  endfacet
  facet normal 0.258818 -0.965926 0
    outer loop
      vertex -1.69345 6.79207 5
      vertex -1.92946 6.72883 0
      vertex -1.69345 6.79207 0
    endloop
  endfacet
  facet normal 0.422615 -0.90631 0
    outer loop
      vertex -3.0686 6.29156 0
      vertex -2.84716 6.39482 5
      vertex -3.0686 6.29156 5
    endloop
  endfacet
  facet normal 0.422615 -0.90631 0
    outer loop
      vertex -2.84716 6.39482 5
      vertex -3.0686 6.29156 0
      vertex -2.84716 6.39482 0
    endloop
  endfacet
  facet normal 0.017455 0.999848 -0
    outer loop
      vertex 0 -7 0
      vertex -0.244296 -6.99574 5
      vertex 0 -7 5
    endloop
  endfacet
  facet normal 0.017455 0.999848 0
    outer loop
      vertex -0.244296 -6.99574 5
      vertex 0 -7 0
      vertex -0.244296 -6.99574 0
    endloop
  endfacet
  facet normal 0.0523337 0.99863 -0
    outer loop
      vertex -0.244296 -6.99574 0
      vertex -0.488295 -6.98295 5
      vertex -0.244296 -6.99574 5
    endloop
  endfacet
  facet normal 0.0523337 0.99863 0
    outer loop
      vertex -0.488295 -6.98295 5
      vertex -0.244296 -6.99574 0
      vertex -0.488295 -6.98295 0
    endloop
  endfacet
  facet normal 0.987688 0.156435 0
    outer loop
      vertex -6.89365 -1.21554 5
      vertex -6.93188 -0.974212 0
      vertex -6.93188 -0.974212 5
    endloop
  endfacet
  facet normal 0.987688 0.156435 0
    outer loop
      vertex -6.93188 -0.974212 0
      vertex -6.89365 -1.21554 5
      vertex -6.89365 -1.21554 0
    endloop
  endfacet
  facet normal -0.99863 -0.0523337 0
    outer loop
      vertex 6.99574 0.244296 0
      vertex 6.98295 0.488295 5
      vertex 6.98295 0.488295 0
    endloop
  endfacet
  facet normal -0.99863 -0.0523337 0
    outer loop
      vertex 6.98295 0.488295 5
      vertex 6.99574 0.244296 0
      vertex 6.99574 0.244296 5
    endloop
  endfacet
  facet normal -0.956305 -0.292371 0
    outer loop
      vertex 6.72883 1.92946 0
      vertex 6.6574 2.16312 5
      vertex 6.6574 2.16312 0
    endloop
  endfacet
  facet normal -0.956305 -0.292371 0
    outer loop
      vertex 6.6574 2.16312 5
      vertex 6.72883 1.92946 0
      vertex 6.72883 1.92946 5
    endloop
  endfacet
  facet normal -0.920503 -0.390734 0
    outer loop
      vertex 6.49029 2.62225 0
      vertex 6.39482 2.84716 5
      vertex 6.39482 2.84716 0
    endloop
  endfacet
  facet normal -0.920503 -0.390734 0
    outer loop
      vertex 6.39482 2.84716 5
      vertex 6.49029 2.62225 0
      vertex 6.49029 2.62225 5
    endloop
  endfacet
  facet normal -0.90631 -0.422615 0
    outer loop
      vertex 6.39482 2.84716 0
      vertex 6.29156 3.0686 5
      vertex 6.29156 3.0686 0
    endloop
  endfacet
  facet normal -0.90631 -0.422615 0
    outer loop
      vertex 6.29156 3.0686 5
      vertex 6.39482 2.84716 0
      vertex 6.39482 2.84716 5
    endloop
  endfacet
  facet normal -0.83867 -0.54464 0
    outer loop
      vertex 5.93634 3.70943 0
      vertex 5.80326 3.91435 5
      vertex 5.80326 3.91435 0
    endloop
  endfacet
  facet normal -0.83867 -0.54464 0
    outer loop
      vertex 5.80326 3.91435 5
      vertex 5.93634 3.70943 0
      vertex 5.93634 3.70943 5
    endloop
  endfacet
  facet normal -0.777145 -0.629321 0
    outer loop
      vertex 5.51608 4.30963 0
      vertex 5.36231 4.49951 5
      vertex 5.36231 4.49951 0
    endloop
  endfacet
  facet normal -0.777145 -0.629321 0
    outer loop
      vertex 5.36231 4.49951 5
      vertex 5.51608 4.30963 0
      vertex 5.51608 4.30963 5
    endloop
  endfacet
  facet normal -0.75471 -0.656058 0
    outer loop
      vertex 5.36231 4.49951 0
      vertex 5.20201 4.68391 5
      vertex 5.20201 4.68391 0
    endloop
  endfacet
  facet normal -0.75471 -0.656058 0
    outer loop
      vertex 5.20201 4.68391 5
      vertex 5.36231 4.49951 0
      vertex 5.36231 4.49951 5
    endloop
  endfacet
  facet normal -0.681998 -0.731354 0
    outer loop
      vertex 4.68391 5.20201 0
      vertex 4.86261 5.03538 5
      vertex 4.68391 5.20201 5
    endloop
  endfacet
  facet normal -0.681998 -0.731354 -0
    outer loop
      vertex 4.86261 5.03538 5
      vertex 4.68391 5.20201 0
      vertex 4.86261 5.03538 0
    endloop
  endfacet
  facet normal -0.017455 -0.999848 0
    outer loop
      vertex 0 7 0
      vertex 0.244296 6.99574 5
      vertex 0 7 5
    endloop
  endfacet
  facet normal -0.017455 -0.999848 -0
    outer loop
      vertex 0.244296 6.99574 5
      vertex 0 7 0
      vertex 0.244296 6.99574 0
    endloop
  endfacet
  facet normal -0.54464 -0.83867 0
    outer loop
      vertex 3.70943 5.93634 0
      vertex 3.91435 5.80326 5
      vertex 3.70943 5.93634 5
    endloop
  endfacet
  facet normal -0.54464 -0.83867 -0
    outer loop
      vertex 3.91435 5.80326 5
      vertex 3.70943 5.93634 0
      vertex 3.91435 5.80326 0
    endloop
  endfacet
  facet normal -0.629321 -0.777145 0
    outer loop
      vertex 4.30963 5.51608 0
      vertex 4.49951 5.36231 5
      vertex 4.30963 5.51608 5
    endloop
  endfacet
  facet normal -0.629321 -0.777145 -0
    outer loop
      vertex 4.49951 5.36231 5
      vertex 4.30963 5.51608 0
      vertex 4.49951 5.36231 0
    endloop
  endfacet
  facet normal -0.453992 -0.891006 0
    outer loop
      vertex 3.0686 6.29156 0
      vertex 3.2863 6.18063 5
      vertex 3.0686 6.29156 5
    endloop
  endfacet
  facet normal -0.453992 -0.891006 -0
    outer loop
      vertex 3.2863 6.18063 5
      vertex 3.0686 6.29156 0
      vertex 3.2863 6.18063 0
    endloop
  endfacet
  facet normal -0.390734 -0.920503 0
    outer loop
      vertex 2.62225 6.49029 0
      vertex 2.84716 6.39482 5
      vertex 2.62225 6.49029 5
    endloop
  endfacet
  facet normal -0.390734 -0.920503 -0
    outer loop
      vertex 2.84716 6.39482 5
      vertex 2.62225 6.49029 0
      vertex 2.84716 6.39482 0
    endloop
  endfacet
  facet normal -0.422615 -0.90631 0
    outer loop
      vertex 2.84716 6.39482 0
      vertex 3.0686 6.29156 5
      vertex 2.84716 6.39482 5
    endloop
  endfacet
  facet normal -0.422615 -0.90631 -0
    outer loop
      vertex 3.0686 6.29156 5
      vertex 2.84716 6.39482 0
      vertex 3.0686 6.29156 0
    endloop
  endfacet
  facet normal -0.292371 -0.956305 0
    outer loop
      vertex 1.92946 6.72883 0
      vertex 2.16312 6.6574 5
      vertex 1.92946 6.72883 5
    endloop
  endfacet
  facet normal -0.292371 -0.956305 -0
    outer loop
      vertex 2.16312 6.6574 5
      vertex 1.92946 6.72883 0
      vertex 2.16312 6.6574 0
    endloop
  endf
